Coordinates
version=1
nRows=18
nColumns=22
inDegrees=yes

Units are S.I. units (second, meters, Newtons, ...)
If the header above contains a line with 'inDegrees', this indicates whether rotational values are in degrees (yes) or radians (no).

endheader
time	pelvis_tilt	pelvis_list	pelvis_rotation	pelvis_tx	pelvis_ty	pelvis_tz	hip_flexion_r	hip_adduction_r	hip_rotation_r	knee_angle_r	ankle_angle_r	subtalar_angle_r	hip_flexion_l	hip_adduction_l	hip_rotation_l	knee_angle_l	ankle_angle_l	subtalar_angle_l	lumbar_extension	lumbar_bending	lumbar_rotation
      0.01000000	      1.68644260	     -2.40672345	     -6.78369210	     -1.20303534	      0.93532514	      0.77605894	     -4.56304039	     -1.79288582	     -1.32263865	     -6.49024536	      5.58650104	      9.03047192	     -4.87396288	     -7.27674252	     -7.85267362	     -6.84264578	      7.64548932	      3.73682891	     -4.82575879	     -1.70461044	     -0.15575985
      0.02000000	      1.59915868	     -2.53011670	     -6.83138974	     -1.20324054	      0.93530296	      0.77636334	     -4.44037844	     -1.63969023	     -1.44584674	     -6.53146533	      5.48946103	      9.05502980	     -4.77200420	     -7.44272895	     -7.91365957	     -6.89465538	      7.69299662	      3.75102919	     -4.76492050	     -1.59638897	     -0.10823579
      0.03000000	      1.50268447	     -2.65613049	     -6.88960988	     -1.20347157	      0.93527479	      0.77670888	     -4.29619713	     -1.48197329	     -1.58948027	     -6.59067425	      5.40062749	      9.07126424	     -4.66431619	     -7.61478078	     -7.98350340	     -6.94166057	      7.72835561	      3.79926737	     -4.69698259	     -1.48928640	     -0.05232756
      0.04000000	      1.40154246	     -2.78384427	     -6.95056776	     -1.20370836	      0.93524447	      0.77705635	     -4.14526247	     -1.32188095	     -1.73709105	     -6.65230955	      5.30502638	      9.08167530	     -4.55258064	     -7.78915909	     -8.05633440	     -6.98790320	      7.76491178	      3.85879599	     -4.62581936	     -1.38006491	      0.00467018
      0.05000000	      1.30788232	     -2.90330044	     -7.00918591	     -1.20393272	      0.93521845	      0.77737722	     -4.00505561	     -1.17275743	     -1.87055041	     -6.71019930	      5.21220974	      9.08839338	     -4.45004489	     -7.95191534	     -8.12423617	     -7.03004328	      7.79625364	      3.91505745	     -4.56304973	     -1.27848632	      0.05980511
      0.06000000	      1.25511059	     -2.99715948	     -7.06538866	     -1.20411814	      0.93523643	      0.77764355	     -3.90311087	     -1.05961277	     -1.98226887	     -6.78114033	      5.13524559	      9.09139788	     -4.40790725	     -8.07404056	     -8.18154733	     -7.03454304	      7.79257242	      3.93873921	     -4.54288668	     -1.20415129	      0.10054234
      0.07000000	      1.19494724	     -3.07689704	     -7.10786088	     -1.20425380	      0.93522292	      0.77784689	     -3.81190388	     -0.96126572	     -2.05540806	     -6.82255971	      5.05910747	      9.09583383	     -4.34871625	     -8.18059405	     -8.23336923	     -7.05289887	      7.81217090	      3.96942430	     -4.50623257	     -1.13810614	      0.14041812
      0.08000000	      1.15754413	     -3.11977947	     -7.13762483	     -1.20433354	      0.93521819	      0.77795695	     -3.76096068	     -0.90914212	     -2.10433888	     -6.83358919	      5.01873191	      9.09927748	     -4.31551740	     -8.23610967	     -8.26111491	     -7.05687013	      7.81679917	      3.98461028	     -4.48878701	     -1.10691072	      0.19058172
      0.09000000	      1.09965181	     -3.16472200	     -7.16971801	     -1.20439892	      0.93516953	      0.77805847	     -3.68226700	     -0.85113050	     -2.07825011	     -6.86280969	      4.95684150	      9.10712782	     -4.24845816	     -8.29901576	     -8.30216855	     -7.09008124	      7.84672552	      4.01980047	     -4.44379010	     -1.06613130	      0.21150900
      0.10000000	      1.09146275	     -3.16907059	     -7.17884336	     -1.20442173	      0.93517043	      0.77807111	     -3.66068181	     -0.84684617	     -2.05872177	     -6.88530542	      4.94410236	      9.10771848	     -4.24151612	     -8.30398760	     -8.30692603	     -7.08943494	      7.85174216	      4.02514724	     -4.45133656	     -1.07099348	      0.20157213
      0.11000000	      1.08553220	     -3.17164541	     -7.18156884	     -1.20441001	      0.93516751	      0.77805710	     -3.65364135	     -0.84513330	     -2.05448310	     -6.88638510	      4.94125854	      9.10769384	     -4.23791991	     -8.30540906	     -8.30818758	     -7.08731558	      7.85262150	      4.02584860	     -4.45994705	     -1.07410852	      0.20330464
      0.12000000	      1.04993039	     -3.18196685	     -7.22626318	     -1.20442278	      0.93512852	      0.77810237	     -3.59075488	     -0.83197287	     -1.96085512	     -6.92645225	      4.89662659	      9.10213232	     -4.20941843	     -8.31785676	     -8.35227164	     -7.09288264	      7.86596142	      4.03758208	     -4.43413793	     -1.06422157	      0.26269763
      0.13000000	      1.04563981	     -3.18385152	     -7.22634920	     -1.20440640	      0.93512607	      0.77808209	     -3.58337200	     -0.83128649	     -1.95575956	     -6.93102853	      4.89468513	      9.10149435	     -4.20568987	     -8.31890113	     -8.35333227	     -7.09247211	      7.86651283	      4.03792427	     -4.44632339	     -1.06695557	      0.26232637
      0.14000000	      1.02622940	     -3.19976886	     -7.26285531	     -1.20443317	      0.93510929	      0.77811906	     -3.52544262	     -0.81484431	     -1.91389801	     -6.99527504	      4.86862781	      9.08557173	     -4.18428134	     -8.33770334	     -8.39682569	     -7.11407767	      7.88067094	      4.04120307	     -4.44459589	     -1.05234923	      0.31439278
      0.15000000	      1.02417891	     -3.21013406	     -7.27365963	     -1.20446633	      0.93512268	      0.77813158	     -3.49826382	     -0.80453049	     -1.90568420	     -7.03647788	      4.85253699	      9.08066537	     -4.17594640	     -8.34990353	     -8.39465495	     -7.13170761	      7.87946148	      4.04137562	     -4.46673037	     -1.04723782	      0.33191222
      0.16000000	      1.01682616	     -3.23382366	     -7.29653206	     -1.20450351	      0.93513523	      0.77816897	     -3.45631591	     -0.78002941	     -1.92382585	     -7.09525346	      4.82650902	      9.07440448	     -4.16693497	     -8.37756762	     -8.41004036	     -7.14842561	      7.88038194	      4.03988945	     -4.48278503	     -1.02749688	      0.37851860
      0.17000000	      1.00646475	     -3.25840157	     -7.31796882	     -1.20454336	      0.93514271	      0.77820102	     -3.40942970	     -0.75421541	     -1.93496582	     -7.15822355	      4.80142618	      9.06833518	     -4.15249979	     -8.40719714	     -8.43386400	     -7.16829625	      7.88686160	      4.03800695	     -4.49464204	     -1.00434850	      0.41978409
      0.18000000	      0.99842935	     -3.27114977	     -7.33205976	     -1.20455846	      0.93514206	      0.77820187	     -3.37108884	     -0.74156483	     -1.92447941	     -7.21253849	      4.78398469	      9.06354258	     -4.13601730	     -8.42249738	     -8.44952385	     -7.19364879	      7.89769871	      4.03557946	     -4.50226440	     -0.99133615	      0.45333316
